@startuml
skinparam linetype ortho

skinparam nodesep 150
skinparam ranksep 100

top to bottom direction

struct Vector3 <<DataType>> {
 + float x
 + float y
 + float z
}

abstract class Geometry {
 + Vector3 origin
 + {abstract} bool is_inside(position: Vector3)
}

class Source {
 + Geometry geometry
 + Map<String, float> daughter_shell_to_binding_energy
 + DecayBranch[1..*] decay_branches
 - DecayBranch get_random_decay_branch()
 + Emission[1..*] get_random_decay_emissions()
 + Vector3 get_emission_position(emission: Emission)
}

class Emission {
 + float energy_mev
 + float interaction_distance
 + Map<String, float> internal_conversion_coeffs
 + bool is_corrected
 + String type
 + Emission get_corrected_emission(shell_binding_energies: Map<String, float>)
}

class DecayBranch {
 + float probabililty
 + Emission[1..*] emissions
 + Emission[1..*] get_corrected_emission(shell_binding_energies: Map<String, float>)
}

Source "1" *-- "1..*" DecayBranch
DecayBranch "1" *-- "1..*" Emission

Source -l-> Geometry
Geometry -[hidden]d-> Vector3
@enduml
